<svg xmlns="http://www.w3.org/2000/svg" xmlns:xlink="http://www.w3.org/1999/xlink" preserveAspectRatio="xMidYMid" width="55" height="55" viewBox="0 0 55 55">
  <defs>
    <style>

      .cls-2 {
        fill: #363636;
      }
    </style>
  </defs>
  <path d="M51.999,11.000 C51.999,11.000 51.999,9.000 51.999,9.000 C51.999,9.000 55.000,9.000 55.000,9.000 C55.000,9.000 55.000,11.000 55.000,11.000 C55.000,11.000 51.999,11.000 51.999,11.000 ZM52.800,25.566 C52.800,25.566 50.178,34.654 50.178,34.654 C51.272,35.368 51.999,36.599 51.999,38.000 C51.999,41.923 49.438,47.715 46.095,48.804 C46.095,48.804 45.959,49.277 45.959,49.277 C44.637,53.242 35.484,55.000 26.994,55.000 C18.504,55.000 9.351,53.242 8.042,49.316 C8.042,49.316 7.894,48.804 7.894,48.804 C4.550,47.717 1.989,41.924 1.989,38.000 C1.989,36.598 2.716,35.368 3.810,34.653 C3.810,34.653 1.188,25.566 1.188,25.566 C1.067,25.079 0.989,24.564 0.989,24.000 C0.989,21.243 3.232,19.000 5.990,19.000 C5.990,19.000 6.989,19.000 6.989,19.000 C6.989,19.000 7.990,19.000 7.990,19.000 C7.990,19.000 9.743,19.000 9.743,19.000 C9.743,19.000 12.774,29.541 12.774,29.541 C15.269,29.812 18.072,29.924 20.993,29.968 C20.993,29.968 20.993,25.235 20.993,25.235 C19.166,23.767 17.992,21.520 17.992,19.000 C17.992,19.000 17.992,15.000 17.992,15.000 C17.992,15.000 16.992,15.000 16.992,15.000 C15.889,15.000 14.992,14.102 14.992,13.000 C14.992,13.000 14.992,11.000 14.992,11.000 C14.992,9.897 15.889,9.000 16.992,9.000 C16.992,9.000 17.051,9.000 17.051,9.000 C17.550,4.506 21.368,1.000 25.994,1.000 C30.619,1.000 34.437,4.506 34.937,9.000 C34.937,9.000 34.996,9.000 34.996,9.000 C36.098,9.000 36.996,9.897 36.996,11.000 C36.996,11.000 36.996,13.000 36.996,13.000 C36.996,14.102 36.098,15.000 34.996,15.000 C34.996,15.000 33.995,15.000 33.995,15.000 C33.995,15.000 33.995,19.000 33.995,19.000 C33.995,21.520 32.821,23.767 30.995,25.235 C30.995,25.235 30.995,29.990 30.995,29.990 C34.627,29.966 38.151,29.872 41.213,29.540 C41.213,29.540 44.225,19.000 44.225,19.000 C44.225,19.000 45.998,19.000 45.998,19.000 C45.998,19.000 47.001,19.000 47.001,19.000 C47.001,19.000 47.998,19.000 47.998,19.000 C50.756,19.000 52.999,21.243 52.999,24.000 C52.999,24.564 52.921,25.079 52.800,25.566 ZM49.999,38.000 C49.999,36.897 49.101,36.000 47.998,36.000 C44.934,36.000 42.997,43.199 42.997,45.000 C42.997,46.102 43.895,47.000 44.998,47.000 C47.194,47.000 49.999,41.953 49.999,38.000 ZM8.990,47.000 C10.093,47.000 10.991,46.102 10.991,45.000 C10.991,42.251 9.102,36.000 5.990,36.000 C4.887,36.000 3.989,36.897 3.989,38.000 C3.989,41.953 6.793,47.000 8.990,47.000 ZM8.237,21.000 C8.237,21.000 7.990,21.000 7.990,21.000 C7.990,21.000 6.989,21.000 6.989,21.000 C6.989,21.000 5.990,21.000 5.990,21.000 C4.335,21.000 2.989,22.346 2.989,24.000 C2.989,27.009 6.061,28.509 10.611,29.256 C10.611,29.256 8.237,21.000 8.237,21.000 ZM21.993,4.301 C20.464,5.388 19.375,7.057 19.093,9.000 C19.093,9.000 21.993,9.000 21.993,9.000 C21.993,9.000 21.993,4.301 21.993,4.301 ZM29.995,4.301 C29.995,4.301 29.995,7.000 29.995,7.000 C29.995,7.000 27.994,7.000 27.994,7.000 C27.994,7.000 27.994,3.322 27.994,3.322 C27.358,3.129 26.694,3.000 25.994,3.000 C25.294,3.000 24.630,3.129 23.993,3.322 C23.993,3.322 23.993,9.000 23.993,9.000 C23.993,9.000 32.894,9.000 32.894,9.000 C32.612,7.057 31.523,5.388 29.995,4.301 ZM34.998,13.000 C34.998,13.000 34.996,11.000 34.996,11.000 C34.996,11.000 16.992,11.000 16.992,11.000 C16.992,11.000 16.992,13.000 16.992,13.000 C16.992,13.000 34.998,13.000 34.998,13.000 ZM31.995,19.000 C31.995,19.000 31.995,15.000 31.995,15.000 C31.995,15.000 19.993,15.000 19.993,15.000 C19.993,15.000 19.993,19.000 19.993,19.000 C19.993,22.308 22.685,25.000 25.994,25.000 C29.303,25.000 31.995,22.308 31.995,19.000 ZM22.993,26.411 C22.993,26.411 22.993,29.990 22.993,29.990 C24.320,29.999 25.659,30.000 26.994,30.000 C27.660,30.000 28.328,30.000 28.994,29.999 C28.994,29.999 28.994,26.411 28.994,26.411 C28.067,26.788 27.055,27.000 25.994,27.000 C24.932,27.000 23.921,26.788 22.993,26.411 ZM26.994,32.000 C17.835,32.000 9.029,31.997 4.385,29.428 C4.385,29.428 5.712,34.028 5.712,34.028 C5.806,34.021 5.895,34.000 5.990,34.000 C10.909,34.000 12.991,41.869 12.991,45.000 C12.991,46.849 11.724,48.394 10.016,48.850 C10.925,50.851 17.547,53.000 26.994,53.000 C36.386,53.000 42.984,50.876 43.965,48.848 C42.261,48.390 40.997,46.847 40.997,45.000 C40.997,43.134 42.903,34.000 47.998,34.000 C48.094,34.000 48.183,34.021 48.276,34.028 C48.276,34.028 49.603,29.428 49.603,29.428 C44.960,31.997 36.153,32.000 26.994,32.000 ZM47.998,21.000 C47.998,21.000 47.001,21.000 47.001,21.000 C47.001,21.000 45.998,21.000 45.998,21.000 C45.998,21.000 45.733,21.000 45.733,21.000 C45.733,21.000 43.375,29.255 43.375,29.255 C47.926,28.508 50.999,27.009 50.999,24.000 C50.999,22.346 49.653,21.000 47.998,21.000 ZM27.078,49.001 C32.891,48.799 36.763,47.742 38.313,46.898 C38.313,46.898 39.270,48.654 39.270,48.654 C37.444,49.648 33.302,50.786 27.148,50.999 C27.148,50.999 27.078,49.001 27.078,49.001 ZM31.995,34.000 C31.995,34.000 33.995,34.000 33.995,34.000 C33.995,34.000 33.995,36.000 33.995,36.000 C33.995,36.000 31.995,36.000 31.995,36.000 C31.995,36.000 31.995,34.000 31.995,34.000 ZM16.336,33.602 C20.393,34.000 25.274,34.000 29.995,34.000 C29.995,34.000 29.995,36.000 29.995,36.000 C25.226,36.000 20.295,36.000 16.140,35.593 C16.140,35.593 16.336,33.602 16.336,33.602 ZM24.994,49.034 C24.994,49.034 24.994,51.034 24.994,51.034 C24.293,51.034 23.614,51.022 22.958,50.999 C22.958,50.999 23.028,49.001 23.028,49.001 C23.661,49.022 24.317,49.034 24.994,49.034 ZM48.999,12.000 C48.999,12.000 50.999,12.000 50.999,12.000 C50.999,12.000 50.999,16.000 50.999,16.000 C50.999,16.000 48.999,16.000 48.999,16.000 C48.999,16.000 48.999,12.000 48.999,12.000 ZM48.999,4.000 C48.999,4.000 50.999,4.000 50.999,4.000 C50.999,4.000 50.999,8.000 50.999,8.000 C50.999,8.000 48.999,8.000 48.999,8.000 C48.999,8.000 48.999,4.000 48.999,4.000 ZM44.998,9.000 C44.998,9.000 47.998,9.000 47.998,9.000 C47.998,9.000 47.998,11.000 47.998,11.000 C47.998,11.000 44.998,11.000 44.998,11.000 C44.998,11.000 44.998,9.000 44.998,9.000 ZM7.001,5.000 C7.001,5.000 10.002,5.000 10.002,5.000 C10.002,5.000 10.002,7.000 10.002,7.000 C10.002,7.000 7.001,7.000 7.001,7.000 C7.001,7.000 7.001,5.000 7.001,5.000 ZM4.001,8.000 C4.001,8.000 6.001,8.000 6.001,8.000 C6.001,8.000 6.001,12.000 6.001,12.000 C6.001,12.000 4.001,12.000 4.001,12.000 C4.001,12.000 4.001,8.000 4.001,8.000 ZM4.001,-0.000 C4.001,-0.000 6.001,-0.000 6.001,-0.000 C6.001,-0.000 6.001,4.000 6.001,4.000 C6.001,4.000 4.001,4.000 4.001,4.000 C4.001,4.000 4.001,-0.000 4.001,-0.000 ZM0.000,5.000 C0.000,5.000 3.001,5.000 3.001,5.000 C3.001,5.000 3.001,7.000 3.001,7.000 C3.001,7.000 0.000,7.000 0.000,7.000 C0.000,7.000 0.000,5.000 0.000,5.000 Z" id="path-1" class="cls-2" fill-rule="evenodd"/>
</svg>

