<svg xmlns="http://www.w3.org/2000/svg" xmlns:xlink="http://www.w3.org/1999/xlink" preserveAspectRatio="xMidYMid" width="59" height="50" viewBox="0 0 59 50">
  <defs>
    <style>

      .cls-2 {
        fill: #363636;
      }
    </style>
  </defs>
  <path d="M52.076,34.360 C52.174,34.610 52.363,34.807 52.609,34.914 C52.854,35.023 53.128,35.028 53.379,34.931 C53.379,34.931 58.193,32.851 58.193,32.851 C58.193,32.851 58.998,34.685 58.998,34.685 C58.998,34.685 54.145,36.781 54.145,36.781 C53.768,36.927 53.382,36.999 53.003,36.999 C52.588,36.999 52.180,36.913 51.794,36.744 C51.103,36.441 50.571,35.899 50.266,35.218 C49.277,35.819 48.432,36.457 47.643,37.101 C47.643,37.101 47.643,47.000 47.643,47.000 C47.643,48.102 46.738,49.000 45.628,49.000 C45.628,49.000 34.068,49.000 34.068,49.000 C32.952,49.647 31.676,50.000 30.371,50.000 C29.861,50.000 29.254,49.906 28.656,49.767 C28.297,49.917 27.905,50.000 27.492,50.000 C26.181,50.000 24.633,49.620 23.116,49.000 C23.116,49.000 13.330,49.000 13.330,49.000 C12.250,49.000 11.372,48.102 11.372,47.000 C11.372,47.000 11.372,36.862 11.372,36.862 C11.372,36.862 8.886,35.907 8.886,35.907 C8.886,35.907 8.817,36.083 8.817,36.083 C8.526,36.830 7.959,37.420 7.220,37.744 C6.830,37.915 6.416,38.001 6.000,38.001 C5.631,38.001 5.261,37.933 4.907,37.797 C4.907,37.797 0.013,35.666 0.013,35.666 C0.013,35.666 0.824,33.834 0.824,33.834 C0.824,33.834 5.677,35.948 5.677,35.948 C5.886,36.029 6.160,36.023 6.406,35.914 C6.652,35.806 6.841,35.610 6.938,35.361 C6.938,35.361 11.303,24.169 11.303,24.169 C11.400,23.920 11.394,23.648 11.285,23.404 C11.177,23.160 10.979,22.973 10.728,22.876 C10.728,22.876 2.154,19.582 2.154,19.582 C2.154,19.582 2.882,17.717 2.882,17.717 C2.882,17.717 11.372,20.979 11.372,20.979 C11.372,20.979 11.372,2.000 11.372,2.000 C11.372,0.897 12.276,-0.000 13.387,-0.000 C13.387,-0.000 45.625,-0.000 45.625,-0.000 C46.738,-0.000 47.643,0.898 47.643,2.003 C47.643,2.003 47.643,19.979 47.643,19.979 C47.643,19.979 56.132,16.717 56.132,16.717 C56.132,16.717 56.860,18.582 56.860,18.582 C56.860,18.582 48.287,21.876 48.287,21.876 C48.035,21.973 47.838,22.160 47.729,22.404 C47.620,22.648 47.614,22.920 47.712,23.169 C47.712,23.169 52.076,34.360 52.076,34.360 ZM45.628,47.000 C45.628,47.000 45.628,38.806 45.628,38.806 C43.966,40.210 42.237,41.480 39.605,42.201 C39.365,43.884 38.546,45.433 37.209,46.538 C37.209,46.538 36.651,47.000 36.651,47.000 C36.651,47.000 45.628,47.000 45.628,47.000 ZM27.492,48.000 C28.048,48.000 28.500,47.552 28.500,47.000 C28.500,46.686 28.349,46.388 28.097,46.200 C28.097,46.200 21.938,41.615 21.938,41.615 C21.405,41.219 20.744,41.000 20.077,41.000 C19.166,41.000 18.424,41.736 18.424,42.641 C18.424,44.322 23.599,48.000 27.492,48.000 ZM13.387,47.000 C13.387,47.000 19.509,47.000 19.509,47.000 C17.700,45.676 16.409,44.095 16.409,42.641 C16.409,42.236 16.492,41.854 16.615,41.490 C15.519,40.405 14.703,39.410 14.111,38.410 C13.928,38.100 13.671,37.876 13.387,37.701 C13.387,37.701 13.387,47.000 13.387,47.000 ZM9.613,34.043 C9.613,34.043 13.812,35.654 13.812,35.654 C14.664,35.982 15.367,36.585 15.848,37.396 C16.308,38.174 16.938,38.962 17.782,39.824 C18.412,39.317 19.204,39.000 20.077,39.000 C21.177,39.000 22.267,39.360 23.147,40.016 C23.147,40.016 29.306,44.601 29.306,44.601 C30.063,45.163 30.515,46.060 30.515,47.000 C30.515,47.351 30.442,47.683 30.330,47.996 C30.342,47.997 30.359,48.000 30.371,48.000 C31.612,48.000 32.819,47.566 33.771,46.777 C33.771,46.777 35.919,45.001 35.919,45.001 C37.050,44.067 37.697,42.694 37.697,41.235 C37.697,39.994 37.232,38.813 36.389,37.911 C35.781,37.262 34.224,35.647 32.229,33.920 C32.229,33.920 28.709,35.900 28.709,35.900 C27.427,36.620 25.972,37.000 24.500,37.000 C22.816,37.000 21.447,35.641 21.447,33.970 C21.447,33.040 21.866,32.176 22.597,31.600 C23.439,30.937 24.472,30.153 25.591,29.361 C23.750,28.479 21.990,28.000 20.439,28.000 C18.217,28.000 15.610,27.497 12.547,26.519 C12.547,26.519 9.613,34.043 9.613,34.043 ZM45.832,23.892 C45.719,23.602 45.667,23.301 45.647,23.000 C45.647,23.000 45.628,23.000 45.628,23.000 C45.628,23.000 45.628,22.741 45.628,22.741 C45.628,22.740 45.628,22.739 45.628,22.738 C45.628,22.738 45.628,2.003 45.628,2.003 C45.628,2.003 13.387,2.000 13.387,2.000 C13.387,2.000 13.387,23.802 13.387,23.802 C13.387,23.802 13.368,23.802 13.368,23.802 C13.365,24.084 13.333,24.367 13.252,24.644 C16.072,25.538 18.449,26.000 20.439,26.000 C22.586,26.000 25.011,26.721 27.486,28.075 C30.058,26.411 32.786,25.000 34.652,25.000 C36.011,25.000 37.074,25.293 38.010,25.551 C38.848,25.782 39.641,26.000 40.590,26.000 C42.685,26.000 44.713,25.154 46.049,24.447 C46.049,24.447 45.832,23.892 45.832,23.892 ZM46.781,26.325 C45.116,27.183 42.926,28.000 40.590,28.000 C39.366,28.000 38.403,27.734 37.472,27.478 C36.579,27.232 35.736,27.000 34.652,27.000 C32.820,27.000 28.681,29.362 23.850,33.166 C23.604,33.360 23.462,33.653 23.462,33.970 C23.462,34.538 23.927,35.000 24.500,35.000 C25.625,35.000 26.737,34.710 27.717,34.160 C27.717,34.160 34.741,30.208 34.741,30.208 C34.741,30.208 35.734,31.948 35.734,31.948 C35.734,31.948 34.084,32.877 34.084,32.877 C35.811,34.409 37.157,35.793 37.865,36.551 C38.799,37.550 39.390,38.791 39.608,40.123 C41.901,39.376 43.387,38.096 45.070,36.641 C46.296,35.582 47.693,34.405 49.517,33.338 C49.517,33.338 46.781,26.325 46.781,26.325 ZM38.071,18.000 C36.127,18.000 34.545,19.346 34.545,21.000 C34.545,21.000 32.530,21.000 32.530,21.000 C32.530,18.243 35.016,16.000 38.071,16.000 C41.126,16.000 43.613,18.243 43.613,21.000 C43.613,21.000 41.598,21.000 41.598,21.000 C41.598,19.346 40.016,18.000 38.071,18.000 ZM38.071,14.000 C36.127,14.000 34.545,12.430 34.545,10.500 C34.545,10.500 34.545,8.500 34.545,8.500 C34.545,6.570 36.127,5.000 38.071,5.000 C40.016,5.000 41.598,6.570 41.598,8.500 C41.598,8.500 41.598,10.500 41.598,10.500 C41.598,12.430 40.016,14.000 38.071,14.000 ZM39.582,8.500 C39.582,7.673 38.905,7.000 38.071,7.000 C37.238,7.000 36.560,7.673 36.560,8.500 C36.560,8.500 36.560,10.500 36.560,10.500 C36.560,11.327 37.238,12.000 38.071,12.000 C38.905,12.000 39.582,11.327 39.582,10.500 C39.582,10.500 39.582,8.500 39.582,8.500 ZM16.409,11.000 C16.409,11.000 32.530,11.000 32.530,11.000 C32.530,11.000 32.530,13.000 32.530,13.000 C32.530,13.000 16.409,13.000 16.409,13.000 C16.409,13.000 16.409,11.000 16.409,11.000 ZM28.500,6.000 C28.500,6.000 30.515,6.000 30.515,6.000 C30.515,6.000 30.515,8.000 30.515,8.000 C30.515,8.000 28.500,8.000 28.500,8.000 C28.500,8.000 28.500,6.000 28.500,6.000 ZM16.409,6.000 C16.409,6.000 26.485,6.000 26.485,6.000 C26.485,6.000 26.485,8.000 26.485,8.000 C26.485,8.000 16.409,8.000 16.409,8.000 C16.409,8.000 16.409,6.000 16.409,6.000 ZM28.500,18.000 C28.500,18.000 16.409,18.000 16.409,18.000 C16.409,18.000 16.409,16.000 16.409,16.000 C16.409,16.000 28.500,16.000 28.500,16.000 C28.500,16.000 28.500,18.000 28.500,18.000 ZM30.515,23.000 C30.515,23.000 16.409,23.000 16.409,23.000 C16.409,23.000 16.409,21.000 16.409,21.000 C16.409,21.000 30.515,21.000 30.515,21.000 C30.515,21.000 30.515,23.000 30.515,23.000 Z" id="path-1" class="cls-2" fill-rule="evenodd"/>
</svg>

