<svg xmlns="http://www.w3.org/2000/svg" xmlns:xlink="http://www.w3.org/1999/xlink" preserveAspectRatio="xMidYMid" width="56" height="57" viewBox="0 0 56 57">
  <defs>
    <style>

      .cls-2 {
        fill: #363636;
      }
    </style>
  </defs>
  <path d="M52.000,17.000 C52.000,17.000 52.000,15.000 52.000,15.000 C52.000,15.000 56.000,15.000 56.000,15.000 C56.000,15.000 56.000,17.000 56.000,17.000 C56.000,17.000 52.000,17.000 52.000,17.000 ZM48.775,5.810 C48.775,5.810 51.846,2.740 51.846,2.740 C51.846,2.740 53.260,4.154 53.260,4.154 C53.260,4.154 50.189,7.224 50.189,7.224 C50.189,7.224 48.775,5.810 48.775,5.810 ZM53.242,27.828 C53.242,27.828 51.828,29.242 51.828,29.242 C51.828,29.242 48.711,26.125 48.711,26.125 C48.711,26.125 50.125,24.711 50.125,24.711 C50.125,24.711 53.242,27.828 53.242,27.828 ZM53.000,44.000 C53.000,44.000 53.000,46.000 53.000,46.000 C53.000,46.000 51.000,46.000 51.000,46.000 C51.000,46.000 51.000,44.000 51.000,44.000 C51.000,44.000 53.000,44.000 53.000,44.000 ZM55.000,40.000 C55.000,40.000 55.000,42.000 55.000,42.000 C55.000,42.000 50.000,42.000 50.000,42.000 C49.448,42.000 49.000,42.448 49.000,43.000 C49.000,43.000 49.000,54.000 49.000,54.000 C49.000,54.552 49.448,55.000 50.000,55.000 C50.000,55.000 55.000,55.000 55.000,55.000 C55.000,55.000 55.000,57.000 55.000,57.000 C55.000,57.000 50.000,57.000 50.000,57.000 C48.346,57.000 47.000,55.654 47.000,54.000 C47.000,54.000 30.588,54.000 30.588,54.000 C29.462,54.000 28.333,53.876 27.232,53.633 C27.232,53.633 17.127,51.390 17.127,51.390 C16.030,51.056 15.098,50.551 14.279,49.867 C14.279,49.867 1.262,39.181 1.262,39.181 C0.458,38.511 -0.000,37.533 -0.000,36.493 C-0.000,34.567 1.567,33.000 3.493,33.000 C4.096,33.000 4.689,33.154 5.210,33.446 C5.210,33.446 16.016,39.157 16.016,39.157 C16.014,39.104 16.000,39.054 16.000,39.000 C16.000,36.794 17.794,35.000 20.000,35.000 C20.000,35.000 32.000,35.000 32.000,35.000 C38.685,35.000 43.482,40.325 45.234,42.615 C45.422,42.860 45.708,43.000 46.021,43.000 C46.021,43.000 47.000,43.000 47.000,43.000 C47.000,41.346 48.346,40.000 50.000,40.000 C50.000,40.000 55.000,40.000 55.000,40.000 ZM46.021,45.000 C45.079,45.000 44.213,44.573 43.645,43.829 C42.074,41.776 37.794,37.000 32.000,37.000 C32.000,37.000 20.000,37.000 20.000,37.000 C18.897,37.000 18.000,37.897 18.000,39.000 C18.000,40.102 18.897,41.000 20.000,41.000 C20.000,41.000 32.000,41.000 32.000,41.000 C32.000,41.000 32.000,43.000 32.000,43.000 C32.000,43.000 20.000,43.000 20.000,43.000 C19.300,43.000 18.651,42.803 18.078,42.486 C18.078,42.486 18.069,42.503 18.069,42.503 C18.069,42.503 4.255,35.202 4.255,35.202 C4.014,35.067 3.751,35.000 3.493,35.000 C2.670,35.000 2.000,35.670 2.000,36.493 C2.000,36.937 2.195,37.355 2.537,37.640 C2.537,37.640 15.555,48.327 15.555,48.327 C16.174,48.844 16.873,49.223 17.638,49.457 C17.638,49.457 27.666,51.680 27.666,51.680 C28.624,51.893 29.607,52.000 30.588,52.000 C30.588,52.000 47.000,52.000 47.000,52.000 C47.000,52.000 47.000,45.000 47.000,45.000 C47.000,45.000 46.021,45.000 46.021,45.000 ZM40.307,22.649 C40.307,22.649 42.143,24.485 42.143,24.485 C42.143,24.485 36.485,30.141 36.485,30.141 C36.485,30.141 34.649,28.306 34.649,28.306 C33.805,28.765 32.918,29.132 32.000,29.405 C32.000,29.405 32.000,32.000 32.000,32.000 C32.000,32.000 24.000,32.000 24.000,32.000 C24.000,32.000 24.000,29.405 24.000,29.405 C23.082,29.132 22.195,28.765 21.351,28.306 C21.351,28.306 19.514,30.141 19.514,30.141 C19.514,30.141 13.857,24.485 13.857,24.485 C13.857,24.485 15.693,22.649 15.693,22.649 C15.235,21.805 14.868,20.918 14.594,20.000 C14.594,20.000 12.000,20.000 12.000,20.000 C12.000,20.000 12.000,12.000 12.000,12.000 C12.000,12.000 14.594,12.000 14.594,12.000 C14.867,11.082 15.235,10.196 15.693,9.351 C15.693,9.351 13.857,7.515 13.857,7.515 C13.857,7.515 19.514,1.857 19.514,1.857 C19.514,1.857 21.351,3.693 21.351,3.693 C22.196,3.235 23.082,2.867 24.000,2.594 C24.000,2.594 24.000,-0.000 24.000,-0.000 C24.000,-0.000 32.000,-0.000 32.000,-0.000 C32.000,-0.000 32.000,2.594 32.000,2.594 C32.918,2.867 33.804,3.235 34.649,3.693 C34.649,3.693 36.485,1.857 36.485,1.857 C36.485,1.857 42.143,7.515 42.143,7.515 C42.143,7.515 40.307,9.351 40.307,9.351 C40.765,10.196 41.133,11.082 41.406,12.000 C41.406,12.000 44.000,12.000 44.000,12.000 C44.000,12.000 44.000,20.000 44.000,20.000 C44.000,20.000 41.406,20.000 41.406,20.000 C41.132,20.918 40.765,21.805 40.307,22.649 ZM42.000,14.000 C42.000,14.000 39.848,14.000 39.848,14.000 C39.848,14.000 39.666,13.230 39.666,13.230 C39.372,11.989 38.881,10.805 38.206,9.712 C38.206,9.712 37.790,9.039 37.790,9.039 C37.790,9.039 39.314,7.515 39.314,7.515 C39.314,7.515 36.485,4.685 36.485,4.685 C36.485,4.685 34.961,6.210 34.961,6.210 C34.961,6.210 34.288,5.794 34.288,5.794 C33.195,5.119 32.011,4.628 30.769,4.334 C30.769,4.334 30.000,4.152 30.000,4.152 C30.000,4.152 30.000,2.000 30.000,2.000 C30.000,2.000 26.000,2.000 26.000,2.000 C26.000,2.000 26.000,4.152 26.000,4.152 C26.000,4.152 25.230,4.334 25.230,4.334 C23.989,4.628 22.805,5.119 21.712,5.794 C21.712,5.794 21.039,6.210 21.039,6.210 C21.039,6.210 19.514,4.685 19.514,4.685 C19.514,4.685 16.685,7.515 16.685,7.515 C16.685,7.515 18.210,9.039 18.210,9.039 C18.210,9.039 17.794,9.712 17.794,9.712 C17.119,10.805 16.628,11.989 16.334,13.230 C16.334,13.230 16.152,14.000 16.152,14.000 C16.152,14.000 14.000,14.000 14.000,14.000 C14.000,14.000 14.000,18.000 14.000,18.000 C14.000,18.000 16.152,18.000 16.152,18.000 C16.152,18.000 16.334,18.769 16.334,18.769 C16.629,20.012 17.120,21.195 17.794,22.288 C17.794,22.288 18.210,22.961 18.210,22.961 C18.210,22.961 16.685,24.485 16.685,24.485 C16.685,24.485 19.514,27.313 19.514,27.313 C19.514,27.313 21.039,25.789 21.039,25.789 C21.039,25.789 21.712,26.205 21.712,26.205 C22.805,26.881 23.988,27.371 25.229,27.664 C25.229,27.664 26.000,27.847 26.000,27.847 C26.000,27.847 26.000,30.000 26.000,30.000 C26.000,30.000 30.000,30.000 30.000,30.000 C30.000,30.000 30.000,27.847 30.000,27.847 C30.000,27.847 30.770,27.664 30.770,27.664 C32.012,27.371 33.195,26.881 34.288,26.205 C34.288,26.205 34.961,25.789 34.961,25.789 C34.961,25.789 36.485,27.313 36.485,27.313 C36.485,27.313 39.314,24.485 39.314,24.485 C39.314,24.485 37.790,22.961 37.790,22.961 C37.790,22.961 38.206,22.288 38.206,22.288 C38.880,21.195 39.371,20.012 39.666,18.769 C39.666,18.769 39.848,18.000 39.848,18.000 C39.848,18.000 42.000,18.000 42.000,18.000 C42.000,18.000 42.000,14.000 42.000,14.000 ZM28.000,22.000 C24.691,22.000 22.000,19.309 22.000,16.000 C22.000,12.691 24.691,10.000 28.000,10.000 C31.309,10.000 34.000,12.691 34.000,16.000 C34.000,19.309 31.309,22.000 28.000,22.000 ZM28.000,12.000 C25.794,12.000 24.000,13.794 24.000,16.000 C24.000,18.206 25.794,20.000 28.000,20.000 C30.206,20.000 32.000,18.206 32.000,16.000 C32.000,13.794 30.206,12.000 28.000,12.000 ZM2.752,27.834 C2.752,27.834 5.881,24.705 5.881,24.705 C5.881,24.705 7.295,26.119 7.295,26.119 C7.295,26.119 4.166,29.248 4.166,29.248 C4.166,29.248 2.752,27.834 2.752,27.834 ZM2.717,4.131 C2.717,4.131 4.131,2.717 4.131,2.717 C4.131,2.717 7.213,5.799 7.213,5.799 C7.213,5.799 5.799,7.213 5.799,7.213 C5.799,7.213 2.717,4.131 2.717,4.131 ZM4.000,17.000 C4.000,17.000 -0.000,17.000 -0.000,17.000 C-0.000,17.000 -0.000,15.000 -0.000,15.000 C-0.000,15.000 4.000,15.000 4.000,15.000 C4.000,15.000 4.000,17.000 4.000,17.000 Z" id="path-1" class="cls-2" fill-rule="evenodd"/>
</svg>

