<?xml version="1.0" encoding="utf-8"?>
<!-- Generator: Adobe Illustrator 16.0.0, SVG Export Plug-In . SVG Version: 6.00 Build 0)  -->
<!DOCTYPE svg PUBLIC "-//W3C//DTD SVG 1.1//EN" "http://www.w3.org/Graphics/SVG/1.1/DTD/svg11.dtd">
<svg version="1.1" id="Layer_1" xmlns="http://www.w3.org/2000/svg" xmlns:xlink="http://www.w3.org/1999/xlink" x="0px" y="0px"
	 width="65px" height="74px" viewBox="0 0 65 74" enable-background="new 0 0 65 74" xml:space="preserve">
<g id="_x35_2svg">
	<path id="path-1" d="M42.57,73.035v-2.031h22.205v2.031H42.57z M55.466,57.633l5.89-5.738l1.473,1.436l-6.325,6.165l-5.597,1.155
		l-4.869,4.746l-1.473-1.436l5.305-5.172L55.466,57.633z M50.873,16.467c0,1.647-1.374,2.987-3.063,2.987h-2.852v4.509l-5.591,6.902
		H25.393l-5.591-6.902v-4.509h-2.851c-1.688,0-3.062-1.34-3.062-2.987v-0.136H1.053V8.233h12.836V8.095
		c0-1.646,1.374-2.984,3.062-2.984h2.851V3.017c0-1.669,1.395-3.027,3.107-3.027h18.944c1.713,0,3.105,1.358,3.105,3.027v2.094
		h2.852c1.688,0,3.063,1.338,3.063,2.984v0.138h12.835v8.098H50.873V16.467z M13.889,10.265H3.138v4.034h10.751V10.265z
		 M19.802,7.142h-2.851c-0.539,0-0.977,0.428-0.977,0.953v0.138v8.098v0.136c0,0.527,0.438,0.956,0.977,0.956h2.851V7.142z
		 M42.874,3.017c0-0.549-0.458-0.996-1.021-0.996H22.909c-0.564,0-1.023,0.447-1.023,0.996v20.242l5.054,6.238h10.881l5.053-6.238
		V3.017z M48.789,16.331V8.233V8.095c0-0.525-0.439-0.953-0.979-0.953h-2.852v10.281h2.852c0.539,0,0.979-0.429,0.979-0.956V16.331z
		 M61.623,14.299v-4.034h-10.75v4.034H61.623z M8.256,59.495l-6.323-6.163l1.473-1.436l5.887,5.736l5.597,1.156l5.306,5.171
		l-1.474,1.437l-4.869-4.746L8.256,59.495z M22.189,73.035H-0.015v-2.031h22.204V73.035z"/>
	<path id="path-2" fill="#636363" d="M25.393,30.865v6.937l2.249,2.181v4.666l-2.249,2.179v4.151h3.462v11.188l-2.785,2.449v8.419
		h12.622v-8.419l-2.785-2.449V50.979h3.462v-4.151l-2.249-2.179v-4.666l2.249-2.181v-6.937 M37.821,29.497H26.94 M36.607,65.52
		v5.484h-8.453V65.52l2.785-2.449V50.979h2.883V63.07L36.607,65.52z M37.284,47.672v1.273h-9.807v-1.273l2.249-2.178v-6.357
		l-2.249-2.18v-5.429h9.807v5.429l-2.249,2.18v6.357L37.284,47.672z"/>
</g>
</svg>

