<?xml version="1.0" encoding="utf-8"?>
<!-- Generator: Adobe Illustrator 16.0.0, SVG Export Plug-In . SVG Version: 6.00 Build 0)  -->
<!DOCTYPE svg PUBLIC "-//W3C//DTD SVG 1.1//EN" "http://www.w3.org/Graphics/SVG/1.1/DTD/svg11.dtd">
<svg version="1.1" id="Layer_1" xmlns="http://www.w3.org/2000/svg" xmlns:xlink="http://www.w3.org/1999/xlink" x="0px" y="0px"
	 width="63px" height="74px" viewBox="0 0 63 74" enable-background="new 0 0 63 74" xml:space="preserve">
<g id="_x35_3svg">
	<path id="path-1" fill="#636363" d="M58.695,30.737h-6.658v9.096c0,2.594-2.135,4.705-4.756,4.705
		c-2.622,0-4.756-2.111-4.756-4.705v-9.096h-6.658c-2.621,0-4.755-2.111-4.755-4.705v-7.527V5.959V0.94
		c0-0.519,0.426-0.941,0.95-0.941h30.437c0.524,0,0.951,0.422,0.951,0.941v6.273v11.292v7.527
		C63.45,28.626,61.316,30.737,58.695,30.737z M33.014,26.032c0,1.556,1.281,2.823,2.854,2.823h7.609
		c0.525,0,0.951,0.422,0.951,0.941v10.037c0,1.556,1.28,2.823,2.854,2.823c1.572,0,2.854-1.268,2.854-2.823V29.796
		c0-0.519,0.426-0.941,0.951-0.941h7.609c1.572,0,2.853-1.267,2.853-2.823v-6.586H33.014V26.032z M61.548,17.564v-9.41h-4.438v0.941
		c0,1.556-1.28,2.823-2.854,2.823c-1.572,0-2.854-1.267-2.854-2.823V8.154h-5.706v2.196c0,1.556-1.281,2.823-2.854,2.823
		c-1.572,0-2.853-1.267-2.853-2.823V6.9h-6.976v10.664H61.548z M33.014,5.018h7.926c0.525,0,0.951,0.421,0.951,0.941v4.391
		c0,0.518,0.428,0.941,0.951,0.941c0.524,0,0.952-0.423,0.952-0.941V7.213c0-0.519,0.426-0.941,0.951-0.941h7.608
		c0.525,0,0.951,0.422,0.951,0.941v1.882c0,0.518,0.428,0.941,0.951,0.941c0.524,0,0.951-0.423,0.951-0.941V7.213
		c0-0.519,0.426-0.941,0.951-0.941h5.39V1.881H33.014V5.018z M58.695,23.209H35.867c-0.525,0-0.951-0.421-0.951-0.941
		c0-0.519,0.426-0.94,0.951-0.94h22.828c0.524,0,0.951,0.421,0.951,0.94C59.646,22.788,59.22,23.209,58.695,23.209z M47.281,36.383
		c0.525,0,0.951,0.421,0.951,0.941v1.254c0,0.52-0.426,0.941-0.951,0.941s-0.951-0.422-0.951-0.941v-1.254
		C46.33,36.804,46.756,36.383,47.281,36.383z"/>
	<path id="path-2" d="M33.615,66.111h3.933c4.681,0,7.257,2.558,7.257,7.205c0,0.518-0.423,0.938-0.945,0.938
		c-0.523,0-0.947-0.421-0.947-0.938c0-3.299-1.422-4.981-4.417-5.268v5.268c0,0.518-0.424,0.938-0.947,0.938
		c-0.522,0-0.946-0.421-0.946-0.938V67.99h-2.986c-0.057,0-0.112-0.01-0.169-0.014v5.34c0,0.518-0.425,0.938-0.946,0.938
		c-0.523,0-0.947-0.421-0.947-0.938v-5.819c-0.176-0.089-0.348-0.185-0.511-0.294c-2.481,2.123-5.617,3.293-8.847,3.293
		c-3.189,0-6.26-1.12-8.698-3.146c-0.459,0.268-0.968,0.457-1.507,0.559v5.408c0,0.518-0.424,0.938-0.947,0.938
		s-0.947-0.421-0.947-0.938V67.99H7.257c-0.113,0-0.207,0.017-0.316,0.02v5.307c0,0.518-0.424,0.938-0.946,0.938
		c-0.523,0-0.947-0.421-0.947-0.938v-5.043c-2.134,0.61-3.155,2.246-3.155,5.043c0,0.518-0.424,0.938-0.947,0.938
		c-0.523,0-0.947-0.421-0.947-0.938c0-4.039,1.952-6.496,5.535-7.07c0.139-0.078,0.29-0.135,0.461-0.135
		c0.118,0,0.228,0.027,0.333,0.066c0.307-0.025,0.6-0.066,0.929-0.066h3.933c1.485,0,2.693-1.199,2.693-2.674V61.23
		c-2.207-1.773-3.831-4.224-4.581-7.023H8.343c-1.817,0-3.295-1.468-3.295-3.271v-6.637c0-1.1,0.902-1.994,2.01-1.994h0.514v-5.327
		c0-1.748,1.323-3.18,3.023-3.401c1.851-2.856,4.944-4.7,8.335-4.994v-0.376c0-1.9,1.557-3.446,3.471-3.446
		c1.915,0,3.471,1.546,3.471,3.446v0.376c3.396,0.294,6.482,2.137,8.334,4.994c1.702,0.22,3.025,1.652,3.025,3.401v5.327h0.515
		c1.108,0,2.01,0.895,2.01,1.994v6.637c0,1.804-1.478,3.271-3.295,3.271h-0.959c-0.75,2.8-2.374,5.25-4.581,7.023v2.207
		C30.922,64.912,32.13,66.111,33.615,66.111z M22.195,68.617c2.746,0,5.413-0.989,7.539-2.78c-0.44-0.698-0.705-1.517-0.705-2.399
		v-0.934c-1.962,1.096-4.22,1.727-6.627,1.727c-2.406,0-4.664-0.631-6.626-1.727v0.934c0,0.983-0.324,1.89-0.86,2.636
		C16.979,67.711,19.538,68.617,22.195,68.617z M12.621,36.978c0-0.864-0.708-1.566-1.578-1.566s-1.578,0.702-1.578,1.566v5.327
		h1.578h1.578V36.978z M18.931,30.463c-2.482,0.259-4.764,1.52-6.292,3.474c1.109,0.576,1.875,1.715,1.875,3.041v5.327h4.417V30.463
		z M23.98,28.207c0-0.864-0.707-1.566-1.578-1.566c-0.87,0-1.577,0.702-1.577,1.566v14.098h3.155V28.207z M25.873,30.463v11.842
		h4.418v-5.327c0-1.325,0.765-2.464,1.872-3.04C30.635,31.984,28.359,30.722,25.873,30.463z M35.339,36.978
		c0-0.848-0.684-1.532-1.532-1.557c-0.037,0.004-0.072,0.029-0.11,0.029c-0.02,0-0.035-0.013-0.054-0.014
		c-0.812,0.064-1.459,0.72-1.459,1.542v5.327h1.578h1.577V36.978z M34.077,50.761c0-0.518,0.424-0.938,0.946-0.938
		s0.946,0.421,0.946,0.938c0,0.53-0.03,1.054-0.091,1.567h0.583c0.772,0,1.402-0.625,1.402-1.393v-6.637
		c0-0.064-0.054-0.115-0.117-0.115h-1.461H35.97v1.565c0,0.519-0.424,0.94-0.946,0.94s-0.946-0.422-0.946-0.94v-1.565h-0.315h-2.524
		h-17.67h-2.524h-0.315v1.565c0,0.519-0.424,0.94-0.947,0.94c-0.523,0-0.947-0.422-0.947-0.94v-1.565H8.519H7.058
		c-0.064,0-0.117,0.051-0.117,0.115v6.637c0,0.768,0.629,1.393,1.402,1.393h0.583c-0.06-0.514-0.092-1.037-0.092-1.567
		c0-0.518,0.424-0.938,0.947-0.938c0.522,0,0.947,0.421,0.947,0.938c0,6.392,5.237,11.591,11.674,11.591
		C28.84,62.352,34.077,57.152,34.077,50.761z"/>
</g>
</svg>

