<?xml version="1.0" encoding="utf-8"?>
<!-- Generator: Adobe Illustrator 16.0.0, SVG Export Plug-In . SVG Version: 6.00 Build 0)  -->
<!DOCTYPE svg PUBLIC "-//W3C//DTD SVG 1.1//EN" "http://www.w3.org/Graphics/SVG/1.1/DTD/svg11.dtd">
<svg version="1.1" id="Layer_1" xmlns="http://www.w3.org/2000/svg" xmlns:xlink="http://www.w3.org/1999/xlink" x="0px" y="0px"
	 width="58px" height="61px" viewBox="0 0 58 61" enable-background="new 0 0 58 61" xml:space="preserve">
<g id="_x34_9svg">
	<path id="path-1" d="M56.711,61.025c-0.011-0.002-0.023-0.002-0.035,0H1.294c-0.716,0-1.298-0.578-1.298-1.289V4.733
		c0-0.522,0.316-0.992,0.802-1.192c0.484-0.198,1.042-0.089,1.414,0.28l50.19,49.846c0,0.001,0,0.001,0,0.001l5.031,4.997
		c0.348,0.231,0.575,0.624,0.575,1.071C58.009,60.447,57.427,61.025,56.711,61.025z M2.592,15.476h2.164
		c0.716,0,1.298,0.577,1.298,1.289c0,0.711-0.582,1.289-1.298,1.289H2.592v2.578h2.164c0.716,0,1.298,0.577,1.298,1.289
		S5.472,23.21,4.756,23.21H2.592v2.579h3.894c0.717,0,1.298,0.577,1.298,1.289c0,0.711-0.581,1.289-1.298,1.289H2.592v2.578h2.164
		c0.716,0,1.298,0.577,1.298,1.29c0,0.711-0.582,1.289-1.298,1.289H2.592v2.578h3.894c0.717,0,1.298,0.578,1.298,1.289
		S7.203,38.68,6.486,38.68H2.592v2.578h2.164c0.716,0,1.298,0.577,1.298,1.289s-0.582,1.289-1.298,1.289H2.592v2.579h2.164
		c0.716,0,1.298,0.577,1.298,1.289s-0.582,1.289-1.298,1.289H2.592v4.297h45.76L2.592,7.845V15.476z M50.947,55.868H2.592v2.577
		h50.951L50.947,55.868z M30.751,48.993c-0.012,0-0.024,0-0.035,0H13.409c-0.716,0-1.298-0.577-1.298-1.289V30.515
		c0-0.522,0.316-0.992,0.801-1.191c0.485-0.197,1.044-0.089,1.415,0.28l17.146,17.029c0.349,0.231,0.576,0.624,0.576,1.071
		C32.049,48.416,31.467,48.993,30.751,48.993z M14.707,33.627v12.788h12.876L14.707,33.627z"/>
	<path id="path-2" fill="#636363" d="M54.963,40.398c-0.006,0-0.012,0-0.018,0c-0.084,0-0.17-0.008-0.254-0.024l-8.653-1.719
		c-0.052-0.011-0.099-0.036-0.147-0.054c-0.046-0.015-0.09-0.026-0.134-0.047c-0.14-0.063-0.272-0.144-0.383-0.253L21.145,14.239
		l0,0l0,0l-5.192-5.157c-0.507-0.504-0.507-1.319,0-1.823l6.922-6.875c0.508-0.504,1.329-0.504,1.836,0l5.191,5.156l0,0l0,0
		l24.23,24.064c0.111,0.11,0.191,0.242,0.255,0.382c0.02,0.042,0.032,0.084,0.046,0.128c0.018,0.05,0.043,0.096,0.055,0.148
		l1.673,8.312c0.076,0.162,0.116,0.344,0.116,0.535C56.277,39.828,55.688,40.393,54.963,40.398z M46.292,35.568l1.626-1.615
		L25.524,11.712l-1.626,1.615L46.292,35.568z M23.793,3.118l-5.087,5.053l3.356,3.333l2.544-2.526l0,0l0,0l2.544-2.526L23.793,3.118
		z M28.985,8.275L27.36,9.889L49.753,32.13l1.626-1.614L28.985,8.275z M52.418,33.13l-3.494,3.47l4.367,0.866L52.418,33.13z"/>
</g>
</svg>

