<svg xmlns="http://www.w3.org/2000/svg" xmlns:xlink="http://www.w3.org/1999/xlink" preserveAspectRatio="xMidYMid" width="28" height="24" viewBox="0 0 28 24">
  <defs>
    <style>

      .cls-2 {
        fill: #ffffff;
      }
    </style>
  </defs>
  <path d="M27.500,24.000 C27.500,24.000 0.500,24.000 0.500,24.000 C0.224,24.000 -0.000,23.776 -0.000,23.500 C-0.000,23.500 -0.000,21.500 -0.000,21.500 C-0.000,21.224 0.224,21.000 0.500,21.000 C0.500,21.000 27.500,21.000 27.500,21.000 C27.776,21.000 28.000,21.224 28.000,21.500 C28.000,21.500 28.000,23.500 28.000,23.500 C28.000,23.776 27.776,24.000 27.500,24.000 ZM27.500,13.000 C27.500,13.000 10.500,13.000 10.500,13.000 C10.224,13.000 10.000,12.776 10.000,12.500 C10.000,12.500 10.000,10.500 10.000,10.500 C10.000,10.224 10.224,10.000 10.500,10.000 C10.500,10.000 27.500,10.000 27.500,10.000 C27.776,10.000 28.000,10.224 28.000,10.500 C28.000,10.500 28.000,12.500 28.000,12.500 C28.000,12.776 27.776,13.000 27.500,13.000 ZM27.500,3.000 C27.500,3.000 25.500,3.000 25.500,3.000 C25.500,3.000 0.500,3.000 0.500,3.000 C0.224,3.000 -0.000,2.776 -0.000,2.500 C-0.000,2.500 -0.000,0.500 -0.000,0.500 C-0.000,0.224 0.224,-0.000 0.500,-0.000 C0.500,-0.000 25.500,-0.000 25.500,-0.000 C25.500,-0.000 27.500,-0.000 27.500,-0.000 C27.776,-0.000 28.000,0.224 28.000,0.500 C28.000,0.500 28.000,2.500 28.000,2.500 C28.000,2.776 27.776,3.000 27.500,3.000 ZM0.500,10.000 C0.500,10.000 5.500,10.000 5.500,10.000 C5.776,10.000 6.000,10.224 6.000,10.500 C6.000,10.500 6.000,12.500 6.000,12.500 C6.000,12.776 5.776,13.000 5.500,13.000 C5.500,13.000 0.500,13.000 0.500,13.000 C0.224,13.000 -0.000,12.776 -0.000,12.500 C-0.000,12.500 -0.000,10.500 -0.000,10.500 C-0.000,10.224 0.224,10.000 0.500,10.000 Z" id="path-1" class="cls-2" fill-rule="evenodd"/>
</svg>
